<svg width="30" height="30" viewBox="0 0 30 30" fill="none" xmlns="http://www.w3.org/2000/svg">
<path d="M1.58203 0L4.17572 27.041L15.1023 30L25.8744 27.041L28.4681 0H1.58203Z" fill="#FD982C"/>
<path d="M15.1016 0V30L25.8737 27.041L28.4673 0H15.1016Z" fill="#FA502E"/>
<path d="M23.0955 9.33861L11.6194 9.33838L11.8114 11.4377H23.041L22.1335 23.1676L15.0922 25.2157L7.53452 22.8651V18.1082H12.2293V19.525L15.0931 20.4099L17.8065 19.5243L18.004 16.0121H7.6073L6.43359 4.82277H23.0955V9.33861Z" fill="white"/>
<path d="M15.1016 4.82277H23.0953V9.33861H15.1016V4.82277Z" fill="#DEECF1"/>
<path d="M18.0038 16.0121L17.8063 19.5243L15.1016 20.4071V25.2129L22.1333 23.1676L23.0408 11.4377H15.1016V16.0121H18.0038Z" fill="#DEECF1"/>
</svg>
