<svg width="30" height="30" viewBox="0 0 30 30" fill="none" xmlns="http://www.w3.org/2000/svg">
<path d="M0.498047 29.5018H29.5018V0.498096H0.498047V29.5018Z" fill="#FFE100"/>
<path d="M28.002 29.5018H29.5021V0.498096H28.002V29.5018Z" fill="#FFA800"/>
<path d="M0.498047 29.5018H1.99822V0.498096H0.498047V29.5018Z" fill="white"/>
<path d="M29.5019 30H0.498105C0.223008 30 0 29.777 0 29.5019V0.498105C0 0.223008 0.223008 0 0.498105 0H29.5019C29.777 0 30 0.223008 30 0.498105V29.5019C30 29.777 29.777 30 29.5019 30ZM0.996211 29.0038H29.0038V0.996211H0.996211V29.0038Z" fill="black"/>
<path d="M23.0006 27.4997C20.5201 27.4997 18.502 25.4816 18.502 23.001C18.502 22.7259 18.725 22.5029 19.0001 22.5029C19.2752 22.5029 19.4982 22.7259 19.4982 23.001C19.4982 24.9322 21.0694 26.5035 23.0006 26.5035C24.9319 26.5035 26.503 24.9323 26.503 23.001C26.503 21.0698 24.9319 19.4986 23.0006 19.4986C20.5201 19.4986 18.502 17.4805 18.502 14.9999C18.502 12.5194 20.52 10.5014 23.0006 10.5014C25.4812 10.5014 27.4993 12.5194 27.4993 15C27.4993 15.2751 27.2762 15.4981 27.0012 15.4981C26.7261 15.4981 26.503 15.2751 26.503 15C26.503 13.0688 24.9319 11.4976 23.0006 11.4976C21.0694 11.4976 19.4982 13.0688 19.4982 15C19.4982 16.9312 21.0694 18.5024 23.0006 18.5024C25.4811 18.5024 27.4993 20.5205 27.4993 23.0011C27.4993 25.4816 25.4811 27.4997 23.0006 27.4997Z" fill="black"/>
<path d="M12.5006 27.4997C10.0201 27.4997 8.00195 25.4816 8.00195 23.001C8.00195 22.7259 8.22496 22.5029 8.50006 22.5029C8.77516 22.5029 8.99816 22.7259 8.99816 23.001C8.99816 24.9322 10.5693 26.5035 12.5006 26.5035C14.4319 26.5035 16.003 24.9323 16.003 23.001V10.9995C16.003 10.7244 16.2261 10.5014 16.5012 10.5014C16.7762 10.5014 16.9993 10.7244 16.9993 10.9995V23.001C16.9991 25.4815 14.9811 27.4997 12.5006 27.4997Z" fill="black"/>
</svg>
