<svg width="20" height="20" viewBox="0 0 20 20" fill="none" xmlns="http://www.w3.org/2000/svg">
<path d="M13.1918 13.0781C12.2601 14.0099 12.3765 15.8901 12.3765 15.8901H7.65108C7.65108 15.8901 7.75091 14.0099 6.83577 13.0781C5.82079 12.1796 5.17188 10.8818 5.17188 9.43418C5.17188 6.77195 7.33494 4.60889 9.99717 4.60889C12.6594 4.60889 14.8225 6.77195 14.8225 9.43418C14.8225 10.8818 14.1902 12.1796 13.1918 13.0781Z" fill="#FFD517"/>
<path d="M12.5083 17.3711C12.5083 17.6207 12.3086 17.8204 12.0591 17.8204H7.94925C7.69967 17.8204 7.5 17.6207 7.5 17.3711C7.5 17.1215 7.69967 16.9219 7.94925 16.9219H12.0424C12.292 16.9219 12.5083 17.1215 12.5083 17.3711Z" fill="#E5E5E5"/>
<path d="M11.8923 19.2347C11.8923 19.4842 11.6926 19.6839 11.443 19.6839H8.56449C8.3149 19.6839 8.11523 19.4842 8.11523 19.2347C8.11523 18.9851 8.3149 18.7854 8.56449 18.7854H11.443C11.6926 18.7854 11.8923 18.9851 11.8923 19.2347Z" fill="#E5E5E5"/>
<path d="M13.4392 13.2445C14.5207 12.2628 15.1364 10.8817 15.1364 9.43416C15.1364 6.60554 12.8236 4.29272 9.99495 4.29272C7.16633 4.29272 4.85352 6.60554 4.85352 9.43416C4.85352 10.915 5.50243 12.3293 6.6006 13.2944C7.41591 14.1097 7.33272 15.8401 7.33272 15.8568C7.33272 15.94 7.36599 16.0232 7.41591 16.0897C7.48247 16.1563 7.56566 16.1896 7.64886 16.1896H12.3577C12.4409 16.1896 12.5241 16.1563 12.5906 16.0897C12.6572 16.0232 12.6738 15.94 12.6738 15.8568C12.6738 15.8401 12.5906 14.1097 13.4059 13.2944C13.4226 13.2778 13.4392 13.2611 13.4392 13.2445ZM12.9733 12.8285C12.94 12.8451 12.9234 12.8784 12.9068 12.9117C12.1746 13.6937 12.0582 14.9749 12.0415 15.5739H7.965C7.94836 14.9583 7.81525 13.6272 7.03322 12.8451C6.05152 11.9799 5.4858 10.7486 5.4858 9.45079C5.4858 6.95495 7.51575 4.94164 9.99495 4.94164C12.4908 4.94164 14.5041 6.97159 14.5041 9.45079C14.5041 10.732 13.955 11.9799 12.9733 12.8285Z" fill="#210B20"/>
<path d="M9.99583 5.62402C9.82944 5.62402 9.67969 5.75714 9.67969 5.94016C9.67969 6.10655 9.8128 6.2563 9.99583 6.2563C11.8594 6.2563 13.3735 7.77045 13.3735 9.63401C13.3735 9.8004 13.5066 9.95015 13.6897 9.95015C13.8561 9.95015 14.0058 9.81704 14.0058 9.63401C14.0058 7.42103 12.2088 5.62402 9.99583 5.62402Z" fill="#210B20"/>
<path d="M12.8242 17.3711C12.8242 16.9385 12.4748 16.6057 12.0588 16.6057H7.94898C7.51637 16.6057 7.18359 16.9551 7.18359 17.3711C7.18359 17.8037 7.53301 18.1365 7.94898 18.1365H12.0422C12.4748 18.1365 12.8242 17.8037 12.8242 17.3711ZM12.0422 17.5042H7.94898C7.86579 17.5042 7.81587 17.4377 7.81587 17.3711C7.81587 17.2879 7.88243 17.238 7.94898 17.238H12.0422C12.1254 17.238 12.1753 17.3045 12.1753 17.3711C12.1919 17.4543 12.1254 17.5042 12.0422 17.5042Z" fill="#210B20"/>
<path d="M11.4428 18.4692H8.56422C8.13161 18.4692 7.79883 18.8187 7.79883 19.2346C7.79883 19.6672 8.14825 20 8.56422 20H11.4428C11.8754 20 12.2081 19.6506 12.2081 19.2346C12.2081 18.8187 11.8587 18.4692 11.4428 18.4692ZM11.4428 19.3677H8.56422C8.48102 19.3677 8.43111 19.3012 8.43111 19.2346C8.43111 19.1514 8.49766 19.1015 8.56422 19.1015H11.4428C11.5259 19.1015 11.5759 19.1681 11.5759 19.2346C11.5759 19.3178 11.5259 19.3677 11.4428 19.3677Z" fill="#210B20"/>
<path d="M10.312 2.44592V0.31614C10.312 0.14975 10.1788 0 9.99582 0C9.82944 0 9.67969 0.133111 9.67969 0.31614V2.46256C9.67969 2.62895 9.8128 2.7787 9.99582 2.7787C10.1788 2.76206 10.312 2.62895 10.312 2.44592Z" fill="#210B20"/>
<path d="M15.237 1.58078C15.0872 1.48095 14.9042 1.53086 14.8044 1.66398L13.623 3.44434C13.5232 3.59409 13.5731 3.77712 13.7062 3.87695C13.7561 3.91023 13.8227 3.92687 13.8726 3.92687C13.9724 3.92687 14.0723 3.87695 14.1388 3.79376L15.3202 2.01339C15.42 1.88028 15.3701 1.68061 15.237 1.58078Z" fill="#210B20"/>
<path d="M6.23622 3.86022C6.28614 3.86022 6.3527 3.84358 6.40261 3.8103C6.55236 3.71046 6.58564 3.52744 6.50245 3.37769L5.35436 1.58068C5.25453 1.43093 5.0715 1.39765 4.92175 1.48085C4.772 1.58068 4.73872 1.76371 4.82191 1.91346L5.97 3.71046C6.03656 3.8103 6.13639 3.86022 6.23622 3.86022Z" fill="#210B20"/>
<path d="M1.8261 5.35769L3.7063 6.37266C3.75621 6.40594 3.80613 6.40594 3.85605 6.40594C3.97252 6.40594 4.07235 6.33939 4.13891 6.23955C4.22211 6.0898 4.17219 5.89013 4.0058 5.80694L2.1256 4.79196C1.97585 4.70877 1.77618 4.75868 1.69299 4.92507C1.62643 5.09146 1.67635 5.27449 1.8261 5.35769Z" fill="#210B20"/>
<path d="M16.1355 6.42268C16.1854 6.42268 16.2353 6.40604 16.2853 6.3894L18.1655 5.37443C18.3152 5.29123 18.3818 5.1082 18.2986 4.94181C18.2154 4.79206 18.0323 4.72551 17.866 4.8087L15.9858 5.82368C15.836 5.90687 15.7695 6.0899 15.8526 6.25629C15.9026 6.35612 16.019 6.42268 16.1355 6.42268Z" fill="#210B20"/>
</svg>
