<svg width="18" height="20" viewBox="0 0 18 20" fill="none" xmlns="http://www.w3.org/2000/svg">
<path d="M12.4392 13.2445C13.5207 12.2628 14.1364 10.8817 14.1364 9.43416C14.1364 6.60554 11.8236 4.29272 8.99495 4.29272C6.16633 4.29272 3.85352 6.60554 3.85352 9.43416C3.85352 10.915 4.50243 12.3293 5.6006 13.2944C6.41591 14.1097 6.33272 15.8401 6.33272 15.8568C6.33272 15.94 6.36599 16.0232 6.41591 16.0897C6.48247 16.1563 6.56566 16.1896 6.64886 16.1896H11.3577C11.4409 16.1896 11.5241 16.1563 11.5906 16.0897C11.6572 16.0232 11.6738 15.94 11.6738 15.8568C11.6738 15.8401 11.5906 14.1097 12.4059 13.2944C12.4226 13.2778 12.4392 13.2611 12.4392 13.2445ZM11.9733 12.8285C11.94 12.8451 11.9234 12.8784 11.9068 12.9117C11.1746 13.6937 11.0582 14.9749 11.0415 15.5739H6.965C6.94836 14.9583 6.81525 13.6272 6.03322 12.8451C5.05152 11.9799 4.4858 10.7486 4.4858 9.45079C4.4858 6.95495 6.51575 4.94164 8.99495 4.94164C11.4908 4.94164 13.5041 6.97159 13.5041 9.45079C13.5041 10.732 12.955 11.9799 11.9733 12.8285Z" fill="white"/>
<path d="M8.99583 5.62402C8.82944 5.62402 8.67969 5.75714 8.67969 5.94016C8.67969 6.10655 8.8128 6.2563 8.99583 6.2563C10.8594 6.2563 12.3735 7.77045 12.3735 9.63401C12.3735 9.8004 12.5066 9.95015 12.6897 9.95015C12.8561 9.95015 13.0058 9.81704 13.0058 9.63401C13.0058 7.42103 11.2088 5.62402 8.99583 5.62402Z" fill="white"/>
<path d="M11.8242 17.3711C11.8242 16.9385 11.4748 16.6057 11.0588 16.6057H6.94898C6.51637 16.6057 6.18359 16.9551 6.18359 17.3711C6.18359 17.8037 6.53301 18.1365 6.94898 18.1365H11.0422C11.4748 18.1365 11.8242 17.8037 11.8242 17.3711ZM11.0422 17.5042H6.94898C6.86579 17.5042 6.81587 17.4377 6.81587 17.3711C6.81587 17.2879 6.88243 17.238 6.94898 17.238H11.0422C11.1254 17.238 11.1753 17.3045 11.1753 17.3711C11.1919 17.4543 11.1254 17.5042 11.0422 17.5042Z" fill="white"/>
<path d="M10.4428 18.4692H7.56422C7.13161 18.4692 6.79883 18.8187 6.79883 19.2346C6.79883 19.6672 7.14825 20 7.56422 20H10.4428C10.8754 20 11.2081 19.6506 11.2081 19.2346C11.2081 18.8187 10.8587 18.4692 10.4428 18.4692ZM10.4428 19.3677H7.56422C7.48102 19.3677 7.43111 19.3012 7.43111 19.2346C7.43111 19.1514 7.49766 19.1015 7.56422 19.1015H10.4428C10.526 19.1015 10.5759 19.1681 10.5759 19.2346C10.5759 19.3178 10.526 19.3677 10.4428 19.3677Z" fill="white"/>
<path d="M9.31196 2.44592V0.31614C9.31196 0.14975 9.17885 0 8.99582 0C8.82944 0 8.67969 0.133111 8.67969 0.31614V2.46256C8.67969 2.62895 8.8128 2.7787 8.99582 2.7787C9.17885 2.76206 9.31196 2.62895 9.31196 2.44592Z" fill="white"/>
<path d="M14.237 1.58078C14.0872 1.48095 13.9042 1.53086 13.8044 1.66398L12.623 3.44434C12.5232 3.59409 12.5731 3.77712 12.7062 3.87695C12.7561 3.91023 12.8227 3.92687 12.8726 3.92687C12.9724 3.92687 13.0723 3.87695 13.1388 3.79376L14.3202 2.01339C14.42 1.88028 14.3701 1.68061 14.237 1.58078Z" fill="white"/>
<path d="M5.23622 3.86022C5.28614 3.86022 5.3527 3.84358 5.40261 3.8103C5.55236 3.71047 5.58564 3.52744 5.50245 3.37769L4.35436 1.58068C4.25453 1.43093 4.0715 1.39765 3.92175 1.48085C3.772 1.58068 3.73872 1.76371 3.82191 1.91346L4.97 3.71046C5.03656 3.8103 5.13639 3.86022 5.23622 3.86022Z" fill="white"/>
<path d="M0.826098 5.35769L2.7063 6.37266C2.75621 6.40594 2.80613 6.40594 2.85605 6.40594C2.97252 6.40594 3.07235 6.33939 3.13891 6.23955C3.2221 6.0898 3.17219 5.89013 3.0058 5.80694L1.1256 4.79196C0.975849 4.70877 0.776182 4.75868 0.692987 4.92507C0.626431 5.09146 0.676348 5.27449 0.826098 5.35769Z" fill="white"/>
<path d="M15.1355 6.42268C15.1854 6.42268 15.2353 6.40604 15.2853 6.3894L17.1655 5.37443C17.3152 5.29123 17.3818 5.1082 17.2986 4.94181C17.2154 4.79206 17.0323 4.72551 16.866 4.8087L14.9858 5.82368C14.836 5.90687 14.7695 6.0899 14.8526 6.25629C14.9026 6.35612 15.019 6.42268 15.1355 6.42268Z" fill="white"/>
</svg>
