<svg width="20" height="20" viewBox="0 0 35 35" fill="none" xmlns="http://www.w3.org/2000/svg">
<path d="M32.2696 13.2185L24.2839 21.2042C21.3736 24.1151 16.6379 24.1151 13.7276 21.2042C13.07 20.5465 13.07 19.4807 13.7276 18.823C14.3853 18.1653 15.4511 18.1653 16.1088 18.823C17.7058 20.42 20.305 20.42 21.902 18.823L29.8884 10.8366C31.4854 9.23962 31.4854 6.64109 29.8884 5.0434C29.2328 4.38775 28.4083 4.00153 27.5538 3.8846C26.3259 3.71574 25.0366 4.10203 24.0952 5.0434L19.8819 9.25675C19.2242 9.91444 18.1577 9.91444 17.5 9.25675C16.8423 8.59905 16.8423 7.53259 17.5 6.8749L21.7134 2.66223C24.0118 0.363817 27.4485 -0.119541 30.2254 1.21291C30.9651 1.56707 31.6577 2.05036 32.2696 2.66223C35.1798 5.57252 35.1798 10.3082 32.2696 13.2185Z" fill="white"/>
<path d="M21.203 16.1104C20.5453 16.768 19.4796 16.768 18.8219 16.1104C18.1662 15.4547 17.3418 15.0685 16.4872 14.9516C15.2594 14.7827 13.97 15.169 13.0287 16.1104L5.04234 24.0967C4.10098 25.0381 3.71469 26.3274 3.88355 27.5553C4.00048 28.4099 4.3867 29.2343 5.04234 29.8899C6.64003 31.487 9.23855 31.487 10.8356 29.8899L15.4256 25.2999C16.0833 24.6422 17.1497 24.6422 17.8074 25.2999C18.4651 25.9576 18.4651 27.0234 17.8074 27.6811L13.2174 32.2711C10.3071 35.1814 5.57146 35.1814 2.66118 32.2711C2.04932 31.6592 1.56596 30.9667 1.21187 30.227C-0.120576 27.45 0.36278 24.0133 2.66118 21.7149L10.6469 13.7291C12.9453 11.43 16.382 10.9467 19.159 12.2798C19.8987 12.634 20.5912 13.1172 21.2031 13.7291C21.8607 14.3868 21.8607 15.4527 21.203 16.1104Z" fill="white"/>
<path d="M17.4862 24.9775C18.1439 25.6352 18.1439 26.701 17.4862 27.3587L12.8961 31.9487C9.98588 34.859 5.25021 34.859 2.33994 31.9487C1.72807 31.3369 1.24472 30.6443 0.890625 29.9046L3.5623 27.2329C3.67924 28.0875 4.06545 28.9119 4.7211 29.5676C6.31879 31.1646 8.9173 31.1646 10.5143 29.5676L15.1043 24.9775C15.762 24.3198 16.8286 24.3198 17.4862 24.9775Z" fill="#B0B0B0"/>
<path d="M18.4987 15.7879C17.8431 15.1323 17.0186 14.7461 16.1641 14.6291L18.8357 11.9575C19.5754 12.3116 20.268 12.7949 20.8799 13.4068C21.5376 14.0645 21.5376 15.1302 20.8799 15.7879C20.2222 16.4456 19.1563 16.4456 18.4987 15.7879Z" fill="#B0B0B0"/>
<path d="M31.9473 12.8961L23.9616 20.8818C21.0513 23.7927 16.3157 23.7927 13.4054 20.8818C12.7477 20.2241 12.7477 19.1583 13.4054 18.5006C14.0631 17.8429 15.1288 17.8429 15.7865 18.5006C17.3835 20.0976 19.9827 20.0976 21.5798 18.5006L29.5661 10.5142C31.1632 8.91721 31.1632 6.31869 29.5661 4.72099C28.9105 4.06535 28.0861 3.67913 27.2315 3.56219L29.9032 0.890503C30.6429 1.24466 31.3354 1.72795 31.9473 2.33982C34.8576 5.25011 34.8576 9.98579 31.9473 12.8961Z" fill="#B0B0B0"/>
<path d="M32.6678 13.6144C34.1722 12.1099 35.0007 10.1067 35.0007 7.97369C35.0006 5.84064 34.1721 3.8374 32.6677 2.33294C31.1633 0.828476 29.1601 0 27.027 0C24.8941 0 22.8908 0.828613 21.3863 2.33294L17.1732 6.54615C16.3166 7.40271 16.3166 8.79634 17.1732 9.65283C17.5881 10.0678 18.1397 10.2963 18.7265 10.2963C19.3133 10.2963 19.8649 10.0678 20.2799 9.65283L24.4931 5.43962C25.1687 4.76405 26.0686 4.39194 27.027 4.39194C27.9855 4.39194 28.8854 4.76398 29.5609 5.43962C30.9583 6.83688 30.9583 9.11036 29.561 10.5077L21.5749 18.4938C20.1777 19.891 17.9042 19.8911 16.5068 18.4938C15.6504 17.6372 14.2566 17.6372 13.4002 18.4938C12.5437 19.3503 12.5437 20.744 13.4002 21.6005C14.9555 23.1557 16.9979 23.9332 19.041 23.9332C21.0835 23.9332 23.1268 23.1555 24.6817 21.6005L32.6678 13.6144ZM14.1254 20.8753C13.6686 20.4186 13.6686 19.6754 14.1254 19.2188C14.5821 18.7621 15.3252 18.7621 15.7818 19.2188C16.6805 20.1174 17.8605 20.5667 19.041 20.5666C20.2211 20.5665 21.4016 20.1172 22.3001 19.2188L30.2862 11.2327C32.0831 9.43561 32.0831 6.51149 30.286 4.71445C29.4168 3.84521 28.2593 3.36645 27.027 3.36645C25.7946 3.36645 24.6372 3.84521 23.7679 4.71445L19.5547 8.92759C19.3335 9.14879 19.0393 9.27073 18.7265 9.27073C18.4136 9.27073 18.1195 9.14893 17.8982 8.92759C17.4415 8.47088 17.4415 7.72776 17.8982 7.27112L22.1114 3.05798C23.4221 1.74724 25.1679 1.02535 27.0269 1.02535C28.886 1.02535 30.6317 1.74724 31.9424 3.05798C33.2532 4.36871 33.9751 6.11445 33.9751 7.97362C33.9751 9.83272 33.2531 11.5785 31.9424 12.8892L23.9565 20.8753C21.2461 23.5858 16.8358 23.5857 14.1254 20.8753Z" fill="#020202"/>
<path d="M15.0973 24.9706L10.5074 29.5605C9.83173 30.2362 8.9318 30.6082 7.97338 30.6082C7.01496 30.6082 6.11504 30.2361 5.43939 29.5605C4.04214 28.1632 4.04214 25.8897 5.43939 24.4925L13.4254 16.5064C14.101 15.8308 15.001 15.4587 15.9594 15.4587C16.9179 15.4587 17.8177 15.8307 18.4933 16.5064C18.9082 16.9213 19.4599 17.1498 20.0467 17.1498C20.6335 17.1498 21.185 16.9213 21.6 16.5064C22.4565 15.6498 22.4565 14.2561 21.6 13.3997C20.0956 11.8952 18.0923 11.0668 15.9594 11.0668C13.8263 11.0668 11.8231 11.8953 10.3186 13.3997L2.33273 21.3858C-0.777575 24.4961 -0.777575 29.5569 2.33273 32.6672C3.88801 34.2226 5.93042 35 7.97345 35C10.016 35 12.0592 34.2222 13.6142 32.6672L18.2042 28.0772C19.0607 27.2207 19.0607 25.827 18.2041 24.9706C17.3476 24.1141 15.9538 24.1141 15.0973 24.9706ZM17.4789 27.3522L12.8889 31.9422C10.1785 34.6526 5.76821 34.6527 3.05776 31.9421C0.347309 29.2317 0.347309 24.8214 3.05776 22.1109L11.0438 14.1248C12.3545 12.8141 14.1003 12.0923 15.9594 12.0923C17.8185 12.0923 19.5642 12.8141 20.8749 14.1248C21.3316 14.5816 21.3316 15.3246 20.8749 15.7813C20.6537 16.0025 20.3595 16.1244 20.0467 16.1244C19.7338 16.1244 19.4397 16.0026 19.2185 15.7813C18.3492 14.912 17.1917 14.4333 15.9594 14.4333C14.727 14.4333 13.5695 14.912 12.7003 15.7813L4.71422 23.7674C2.91712 25.5646 2.91712 28.4886 4.71416 30.2856C5.58339 31.155 6.74088 31.6337 7.97324 31.6337C7.97331 31.6337 7.97324 31.6337 7.97331 31.6337C9.20561 31.6337 10.3632 31.155 11.2324 30.2856L15.8224 25.6957C16.2791 25.239 17.0222 25.239 17.4788 25.6957C17.9356 26.1524 17.9356 26.8955 17.4789 27.3522Z" fill="#020202"/>
</svg>
