<svg width="30" height="30" viewBox="0 0 30 30" fill="none" xmlns="http://www.w3.org/2000/svg">
<g clip-path="url(#clip0)">
<path d="M26.8125 30H3.18753C1.40623 30 0 28.5938 0 26.8125V3.18753C0 1.40623 1.40623 0 3.18753 0H26.8125C28.5938 0 30 1.40623 30 3.18753V26.8125C30 28.5938 28.5938 30 26.8125 30Z" fill="#5CA4DA"/>
<path d="M24.1875 0C23.0625 4.87503 20.1562 10.125 15.6562 14.625C10.875 19.4063 5.15624 22.4062 0 23.3437V3.18753C0 1.40623 1.40623 0 3.18753 0H24.1875Z" fill="#6DAFE0"/>
<path d="M22.5 13.0313C24 10.4063 24.5625 7.96877 23.25 6.75001C21.9375 5.43752 19.5937 6 16.9687 7.50003C15.4687 4.87504 13.6875 3.18754 11.9062 3.65628C10.125 4.12503 9.46871 6.46881 9.46871 9.4688C6.46871 9.4688 4.12493 10.2188 3.65619 11.9063C3.18745 13.6876 4.87495 15.4688 7.49993 16.9688C5.99991 19.5938 5.43743 22.0313 6.74992 23.2501C8.06241 24.5626 10.4062 24.0001 13.0312 22.5001C14.5312 25.1251 16.3124 26.8126 18.0937 26.3438C19.8749 25.8751 20.5312 23.5313 20.5312 20.5313C23.5312 20.5313 25.875 19.7813 26.3437 18.0938C26.8125 16.3125 25.125 14.5312 22.5 13.0313ZM22.3125 7.6875C22.875 8.24998 22.5938 10.0313 21.2813 12.2813C20.5313 11.9063 19.6875 11.5312 18.75 11.25C18.4688 10.4063 18.0937 9.56254 17.7188 8.71879C19.9687 7.40629 21.6562 7.12502 22.3125 7.6875ZM15.9375 18.5625C14.625 18.2813 13.5937 18 12.375 17.625C12 16.4063 11.7188 15.3751 11.4375 14.0626C12.2813 13.1251 13.0313 12.3751 14.0625 11.4376C15.375 11.7188 16.4063 12.0001 17.625 12.3751C18 13.5938 18.2813 14.625 18.5625 15.9375C17.7187 16.9688 16.9687 17.7188 15.9375 18.5625ZM18.8438 17.8125C18.9375 18.1875 18.9375 18.6563 18.9375 19.0313C18.5625 19.0313 18.1875 18.9375 17.7187 18.9375C18.2812 18.3751 18.375 18.2812 18.8438 17.8125ZM14.5312 19.7813C14.1562 20.0626 13.8749 20.25 13.5937 20.5313C13.4063 20.1563 13.2187 19.7813 13.125 19.4063C13.7813 19.5 13.7813 19.5937 14.5312 19.7813ZM10.6875 16.9688C10.3125 16.7813 9.93745 16.6875 9.56244 16.5C9.74991 16.2187 10.0312 15.8437 10.3125 15.5625C10.4063 16.2187 10.5 16.2187 10.6875 16.9688ZM11.1562 12.1875C11.0625 11.8125 11.0625 11.3438 11.0625 10.9688C11.4375 10.9688 11.8125 11.0625 12.2812 11.0625C11.7188 11.625 11.625 11.7188 11.1562 12.1875ZM15.4688 10.2188C15.8438 9.93748 16.125 9.75001 16.4062 9.46874C16.5937 9.84374 16.7813 10.2188 16.875 10.5938C16.2187 10.5 16.2187 10.4063 15.4688 10.2188ZM19.3125 13.0313C19.6875 13.2187 20.0625 13.3125 20.4375 13.5C20.2501 13.7813 19.9688 14.1563 19.6875 14.4375C19.5937 13.7813 19.5 13.7813 19.3125 13.0313ZM12.375 5.06251C13.125 4.87504 14.5312 6 15.8437 8.25004C15.0937 8.71879 14.4375 9.28127 13.6875 9.84381C12.75 9.65634 11.9062 9.56254 10.9687 9.4688C10.9687 6.93748 11.5312 5.24998 12.375 5.06251ZM5.06249 12.375C5.24996 11.625 6.93746 10.9688 9.56251 10.9688C9.65624 11.8125 9.74998 12.75 9.93752 13.6875C9.37504 14.4375 8.81249 15.0937 8.34375 15.8437C5.99997 14.4375 4.87502 13.125 5.06249 12.375ZM7.68747 22.3125C7.12499 21.7501 7.4062 19.9688 8.71869 17.7188C9.46871 18.0938 10.3125 18.4688 11.2499 18.75C11.5312 19.5937 11.9062 20.4375 12.2812 21.2812C10.0313 22.5938 8.34375 22.875 7.68747 22.3125ZM17.625 24.9375C16.875 25.125 15.4688 24 14.1563 21.75C14.9063 21.2812 15.5625 20.7188 16.3125 20.1562C17.25 20.3437 18.0937 20.4375 19.0312 20.5312C19.0312 23.0625 18.4688 24.75 17.625 24.9375ZM24.9375 17.625C24.75 18.3751 23.0625 19.0313 20.4375 19.0313C20.3437 18.1875 20.25 17.25 20.0625 16.3125C20.6249 15.5625 21.1875 14.9063 21.6562 14.1563C24 15.5625 25.125 16.875 24.9375 17.625Z" fill="white"/>
<path d="M15 17.0625C16.1391 17.0625 17.0625 16.1391 17.0625 15C17.0625 13.8609 16.1391 12.9375 15 12.9375C13.8609 12.9375 12.9375 13.8609 12.9375 15C12.9375 16.1391 13.8609 17.0625 15 17.0625Z" fill="white"/>
</g>
<defs>
<clipPath id="clip0">
<rect width="30" height="30" fill="white"/>
</clipPath>
</defs>
</svg>
