<svg width="43" height="43" viewBox="0 0 43 43" fill="none" xmlns="http://www.w3.org/2000/svg">
<g clip-path="url(#clip0)">
<path d="M17.391 25.5699C17.3771 25.5829 17.3628 25.5953 17.3479 25.6076L10.9557 30.8634C10.7126 31.0635 10.3838 31.1244 10.0853 31.0251C9.78688 30.9256 9.56016 30.6798 9.48533 30.374C9.46421 30.2879 8.97377 28.2356 9.33182 25.7129C9.81587 22.3041 11.615 19.6672 14.5346 18.0875C14.7769 17.9564 15.0654 17.9415 15.32 18.0468C15.5746 18.152 15.7683 18.3664 15.847 18.6304L17.6436 24.6383C17.7437 24.9732 17.6441 25.3339 17.391 25.5699Z" fill="#FF0202"/>
<path d="M32.0821 31.5623C31.9719 31.665 31.8365 31.7406 31.6857 31.7792C31.3809 31.8575 31.0574 31.7739 30.8286 31.5575L24.8187 25.8685C24.5512 25.6151 24.4614 25.2259 24.5914 24.881L26.8026 19.0128C26.8999 18.755 27.1078 18.5548 27.3692 18.4676C27.6305 18.38 27.9172 18.4153 28.1498 18.563C30.9523 20.3423 32.5631 23.0983 32.808 26.5327C32.9894 29.0741 32.3566 31.0872 32.3297 31.1717C32.2812 31.3234 32.1949 31.4571 32.0821 31.5623Z" fill="#FF0202"/>
<path d="M25.9478 6.36335L17.5836 6.07127C17.2485 6.05956 16.9338 6.23222 16.7634 6.521C14.6652 10.0799 13.5401 13.6421 13.4189 17.1088C13.3938 17.8319 13.4127 18.5727 13.475 19.3101C13.6555 21.4535 14.2065 23.6731 15.113 25.907C15.6909 27.3306 16.4132 28.7595 17.2595 30.1541C18.738 32.59 20.0789 34.0736 20.1352 34.1356C20.3012 34.3179 20.5338 34.4258 20.7803 34.4344C21.023 34.4429 21.2591 34.3545 21.4365 34.189L21.4447 34.1814C21.5055 34.1234 22.9466 32.737 24.5913 30.4103C25.5329 29.0782 26.353 27.7031 27.0289 26.323C28.0888 24.1579 28.7934 21.9823 29.1229 19.8572C29.2367 19.1254 29.3071 18.3878 29.3324 17.6645C29.4535 14.1976 28.5797 10.5657 26.7347 6.86921C26.585 6.56908 26.2829 6.37505 25.9478 6.36335Z" fill="#E1F1FA"/>
<path d="M24.1068 28.9753L17.8401 28.7564C17.3775 28.7403 16.9756 29.0722 16.904 29.5296C16.8483 29.885 16.8139 30.2432 16.8017 30.5939C16.6494 34.9542 19.8397 38.5153 19.9756 38.6647C20.1415 38.8473 20.3742 38.9552 20.6208 38.9636C20.8636 38.9723 21.0996 38.884 21.277 38.7185C21.2798 38.7159 21.2827 38.7132 21.2854 38.7104C21.4313 38.5709 24.8624 35.2408 25.0145 30.8807C25.0267 30.53 25.0174 30.1703 24.9867 29.8118C24.9471 29.3505 24.5694 28.9914 24.1068 28.9753Z" fill="#FFF261"/>
<path d="M15.0392 25.7249L14.9051 29.5698C14.8964 29.8122 14.9846 30.0483 15.1502 30.2259C15.3156 30.4034 15.545 30.5077 15.7876 30.5162L26.0329 30.874C26.2754 30.8826 26.5113 30.7943 26.6889 30.6287C26.8665 30.4631 26.9709 30.234 26.9794 29.9914L27.1136 26.1467L15.0392 25.7249Z" fill="#1B3B6B"/>
<path d="M23.3552 17.2315C22.8098 17.74 22.0988 18.0059 21.3535 17.9799C19.815 17.9261 18.6071 16.6308 18.6607 15.0921C18.6867 14.3468 19.0015 13.6561 19.5469 13.1476C20.0923 12.639 20.8032 12.3731 21.5486 12.3992C22.2939 12.4252 22.9844 12.7398 23.4932 13.2854C24.0017 13.8307 24.2674 14.5415 24.2414 15.2869C24.2154 16.0322 23.9006 16.7229 23.3552 17.2315Z" fill="#06CCAB"/>
<path d="M23.9665 17.8862C23.2462 18.5578 22.3075 18.9087 21.3234 18.8743C19.2916 18.8034 17.6962 17.0926 17.7672 15.0608C17.8016 14.0767 18.2172 13.1646 18.9374 12.4931C19.6576 11.8214 20.5964 11.4705 21.5806 11.5047C22.565 11.5391 23.4768 11.9547 24.1485 12.675C24.8202 13.3953 25.1712 14.3339 25.1368 15.3183C25.1023 16.3025 24.6868 17.2145 23.9665 17.8862ZM20.1857 13.8317C19.8231 14.1698 19.6137 14.6292 19.5964 15.1248C19.5608 16.1479 20.3641 17.0093 21.3871 17.0452C21.8827 17.0625 22.3556 16.8856 22.7182 16.5475C23.0809 16.2092 23.2902 15.75 23.3075 15.2544C23.3248 14.7588 23.1481 14.2861 22.8098 13.9233C22.4716 13.5606 22.0123 13.3514 21.5167 13.3341C21.0211 13.3168 20.5484 13.4934 20.1857 13.8317Z" fill="#1B3B6B"/>
<path d="M21.9699 0.33907C21.723 0.330451 21.4813 0.421604 21.3051 0.592456C21.207 0.686193 18.878 2.93246 16.7621 6.52107L26.7334 6.86928C24.8729 3.14181 22.7063 0.738553 22.615 0.638196C22.449 0.45556 22.2164 0.347678 21.9699 0.33907Z" fill="#FF0202"/>
<path d="M25.9474 6.36335L21.7653 6.21731L20.7799 34.4344C21.0226 34.4429 21.2585 34.3546 21.436 34.1892L21.4443 34.1814C21.505 34.1236 22.9461 32.7371 24.5909 30.4103C25.5325 29.0782 26.3525 27.7032 27.0284 26.3231C28.0884 24.1579 28.793 21.9823 29.1225 19.8572C29.2361 19.1256 29.3067 18.3878 29.3318 17.6646C29.4529 14.1978 28.5791 10.5658 26.7341 6.86936C26.5846 6.56908 26.2825 6.37505 25.9474 6.36335Z" fill="#CDEBFC"/>
<path d="M24.1067 28.9753L20.9734 28.8659L20.6206 38.9638L20.6208 38.964C20.8636 38.9723 21.0995 38.884 21.277 38.7185L21.2853 38.7107C21.4314 38.571 24.8622 35.241 25.0145 30.8807C25.0267 30.53 25.0174 30.1703 24.9865 29.812C24.9471 29.3505 24.5695 28.9913 24.1067 28.9753Z" fill="#FDBF00"/>
<path d="M21.0761 25.9357L20.9099 30.6952L26.0327 30.8741C26.275 30.8826 26.5111 30.7945 26.6887 30.6288C26.8663 30.4632 26.9705 30.234 26.9792 29.9915L27.1133 26.1467L21.0761 25.9357Z" fill="#001035"/>
<path d="M21.55 12.3991C21.5498 12.3992 21.5498 12.3992 21.5498 12.3992L21.3549 17.9798L21.3551 17.9796C22.1003 18.0058 22.8112 17.7399 23.3566 17.2314C23.902 16.7228 24.2168 16.0321 24.2428 15.2868C24.2688 14.5414 24.0031 13.8306 23.4946 13.2853C22.9858 12.74 22.2953 12.4251 21.55 12.3991Z" fill="#1CADB5"/>
<path d="M21.5811 11.5048L21.5173 13.3341C22.0129 13.3514 22.4721 13.5606 22.8104 13.9234C23.1486 14.2861 23.3253 14.7589 23.308 15.2544C23.2907 15.75 23.0815 16.2093 22.7187 16.5475C22.356 16.8858 21.8833 17.0625 21.3877 17.0452C21.3877 17.0452 21.3877 17.0452 21.3875 17.045L21.3236 18.8744L21.3238 18.8745C22.308 18.9087 23.2467 18.5579 23.967 17.8862C24.6873 17.2145 25.1028 16.3025 25.1374 15.3183C25.1716 14.3341 24.8207 13.3954 24.149 12.6751C23.4773 11.9548 22.5654 11.5393 21.5811 11.5048Z" fill="#001035"/>
<path d="M21.9706 0.33901L21.7488 6.69512L26.7344 6.86923C24.874 3.14176 22.7074 0.738503 22.616 0.638146C22.4501 0.45551 22.2174 0.347629 21.9706 0.33901Z" fill="#FF0202"/>
</g>
<defs>
<clipPath id="clip0">
<rect width="30" height="30" fill="white" transform="translate(0 20.46) rotate(-43)"/>
</clipPath>
</defs>
</svg>
